<svg width="100" height="90" viewBox="0 0 198 158" fill="none" xmlns="http://www.w3.org/2000/svg">
<path d="M69.3199 157.66H131.52C135.579 157.66 138.87 154.369 138.87 150.31V149.24C138.87 145.181 135.579 141.89 131.52 141.89H69.3199C65.2606 141.89 61.9699 145.181 61.9699 149.24V150.31C61.9699 154.369 65.2606 157.66 69.3199 157.66Z" fill="#263238"/>
<path d="M97.7399 41.05H103.11V13.9H97.7399V41.05Z" fill="#263238"/>
<path d="M182.534 121.877C191.013 119.862 196.253 111.355 194.238 102.876C192.222 94.3968 183.715 89.1571 175.236 91.1723C166.757 93.1876 161.518 101.695 163.533 110.174C165.548 118.652 174.055 123.892 182.534 121.877Z" fill="#D20536"/>
<path d="M23.0862 120.852C31.5854 118.924 36.9125 110.472 34.9846 101.972C33.0568 93.4733 24.604 88.1462 16.1049 90.074C7.60574 92.0019 2.27865 100.455 4.20649 108.954C6.13433 117.453 14.5871 122.78 23.0862 120.852Z" fill="#D20536"/>
<path d="M97.2999 35.16C97.2999 35.16 33.1399 34.39 22.9999 90C12.8599 145.61 67.0999 146.61 82.7099 147.66C89.7799 148.14 104.92 148.19 118.28 147.95C147.86 147.44 168.76 141.72 175.87 114.28C176.717 111.062 177.249 107.77 177.46 104.45C179.33 74.33 159 33.68 97.2999 35.16Z" fill="#D20536"/>
<path d="M143.84 119.8L50.63 121.25C48.3044 121.291 45.9934 120.873 43.8295 120.02C41.6656 119.167 39.6912 117.895 38.0193 116.278C36.3473 114.661 35.0108 112.73 34.086 110.596C33.1612 108.461 32.6665 106.166 32.63 103.84V103.84C32.5903 101.514 33.0096 99.2027 33.8638 97.0387C34.718 94.8748 35.9905 92.9004 37.6084 91.2287C39.2263 89.5569 41.1579 88.2204 43.2928 87.2958C45.4276 86.3712 47.7238 85.8765 50.05 85.84L143.26 84.39C145.586 84.3476 147.898 84.7647 150.062 85.6174C152.227 86.4701 154.201 87.7415 155.874 89.3589C157.546 90.9763 158.882 92.9078 159.807 95.0427C160.731 97.1776 161.225 99.4739 161.26 101.8C161.301 104.127 160.883 106.438 160.029 108.603C159.175 110.767 157.903 112.742 156.285 114.414C154.666 116.086 152.734 117.423 150.599 118.347C148.463 119.271 146.167 119.765 143.84 119.8V119.8Z" fill="#263238"/>
<path d="M70 101.91C69.7833 103.012 69.2446 104.025 68.452 104.821C67.6595 105.617 66.6488 106.16 65.5476 106.382C64.4464 106.604 63.3042 106.494 62.2655 106.067C61.2267 105.639 60.338 104.913 59.7117 103.981C59.0854 103.048 58.7496 101.951 58.7468 100.828C58.7441 99.7046 59.0744 98.6057 59.6961 97.6702C60.3178 96.7346 61.2029 96.0044 62.2395 95.5719C63.2762 95.1393 64.4178 95.0238 65.5201 95.24C66.2523 95.3836 66.949 95.6701 67.5705 96.0831C68.1919 96.496 68.7259 97.0274 69.142 97.6468C69.558 98.2662 69.8479 98.9616 69.9952 99.6931C70.1424 100.425 70.1441 101.178 70 101.91V101.91Z" fill="white"/>
<path d="M135.09 100.87C134.875 101.973 134.338 102.987 133.546 103.785C132.754 104.583 131.744 105.127 130.642 105.35C129.541 105.573 128.398 105.465 127.359 105.038C126.319 104.612 125.429 103.886 124.802 102.954C124.175 102.021 123.838 100.924 123.835 99.8C123.832 98.6762 124.162 97.5767 124.784 96.6407C125.405 95.7046 126.291 94.974 127.328 94.5413C128.365 94.1087 129.507 93.9934 130.61 94.21C132.087 94.5002 133.388 95.3645 134.228 96.6132C135.068 97.8619 135.378 99.3929 135.09 100.87V100.87Z" fill="white"/>
<path d="M106.688 19.6078C110.145 16.1517 110.145 10.5482 106.688 7.09204C103.232 3.6359 97.6288 3.6359 94.1727 7.09204C90.7165 10.5482 90.7165 16.1517 94.1727 19.6078C97.6288 23.064 103.232 23.064 106.688 19.6078Z" fill="#D20536"/>
<path d="M86.2901 99.29C86.7101 99.34 86.5001 101.29 87.7401 103.96C88.4426 105.493 89.4656 106.857 90.7401 107.96C92.234 109.274 94.0936 110.101 96.0701 110.33C98.0571 110.458 100.037 109.984 101.75 108.97C103.2 108.127 104.455 106.985 105.43 105.62C107.13 103.25 107.28 101.26 107.7 101.29C107.87 101.29 108.04 101.79 108.04 102.73C108.002 104.069 107.66 105.382 107.04 106.57C106.108 108.365 104.731 109.891 103.04 111C100.95 112.473 98.4033 113.154 95.8565 112.921C93.3098 112.689 90.929 111.558 89.1401 109.73C87.68 108.334 86.6053 106.584 86.0201 104.65C85.6032 103.36 85.4936 101.99 85.7001 100.65C85.8701 99.72 86.1301 99.26 86.2901 99.29Z" fill="white"/>
<path d="M89.17 39.32C89.0935 39.3273 89.0165 39.3273 88.94 39.32L88.27 39.39C87.67 39.45 86.79 39.47 85.66 39.6C82.4715 39.9095 79.3077 40.434 76.19 41.17C60.0646 44.8631 45.8414 54.3144 36.19 67.75C31.5271 74.2065 27.9967 81.4093 25.75 89.05C25.4 90.13 25.21 90.99 25.04 91.56L24.85 92.22C24.832 92.2962 24.8051 92.3701 24.77 92.44C24.7567 92.3639 24.7567 92.2861 24.77 92.21C24.77 92.03 24.85 91.81 24.91 91.54C25.05 90.96 25.2 90.09 25.52 88.99C26.3546 85.8833 27.4244 82.8445 28.72 79.9C32.9943 70.1149 39.5015 61.4673 47.72 54.65C55.9734 47.8841 65.6961 43.1443 76.11 40.81C79.246 40.0975 82.432 39.6261 85.64 39.4C86.78 39.3 87.64 39.31 88.26 39.28H88.94C89.1 39.3 89.17 39.31 89.17 39.32Z" fill="white"/>
<path d="M26.3999 116.3C25.9991 115.681 25.6893 115.007 25.4799 114.3C24.2937 110.958 23.7409 107.424 23.8499 103.88C23.8214 103.144 23.9091 102.408 24.1099 101.7C24.2699 101.7 24.0499 105.04 24.6899 109.08C25.3299 113.12 26.5499 116.24 26.3999 116.3Z" fill="white"/>
<path d="M9.57005 111.13C9.57005 111.13 9.34005 110.97 9.03005 110.59C8.58814 110.051 8.20903 109.464 7.90006 108.84C6.83216 106.773 6.42356 104.428 6.72931 102.121C7.03506 99.8149 8.04047 97.6575 9.61005 95.94C10.0698 95.4139 10.5901 94.944 11.1601 94.54C11.3558 94.3752 11.5793 94.2466 11.8201 94.16C11.8801 94.24 10.9801 94.85 9.89005 96.16C8.45949 97.8733 7.54416 99.9571 7.25034 102.17C6.95651 104.382 7.29623 106.633 8.23006 108.66C8.93006 110.25 9.64005 111.07 9.57005 111.13Z" fill="white"/>
<path d="M101 7.18001C100.22 7.09413 99.4332 7.07739 98.6499 7.13001C97.7172 7.21185 96.8157 7.50624 96.0145 7.99061C95.2132 8.47498 94.5336 9.13644 94.0277 9.92426C93.5218 10.7121 93.2031 11.6053 93.096 12.5354C92.9889 13.4655 93.0963 14.4078 93.4099 15.29C93.6799 16.0217 94.0146 16.7278 94.4099 17.4C94.4099 17.4 94.2099 17.28 93.9299 16.96C93.5457 16.4971 93.2415 15.9732 93.0299 15.41C92.6484 14.4762 92.4975 13.4642 92.5899 12.4597C92.6823 11.4553 93.0152 10.4878 93.5607 9.63924C94.1061 8.79068 94.8479 8.08601 95.7233 7.58483C96.5988 7.08366 97.582 6.80074 98.5899 6.76001C99.1886 6.71848 99.79 6.77591 100.37 6.93001C100.82 7.00001 101 7.15001 101 7.18001Z" fill="white"/>
<path d="M188.16 99C188.05 99.12 186.5 97.63 184.16 96.51C181.82 95.39 179.69 95.06 179.71 94.9C181.34 94.8594 182.952 95.2528 184.38 96.04C185.883 96.6688 187.189 97.6914 188.16 99V99Z" fill="white"/>
<path d="M128.44 81.16C128.44 81.3 116.16 81.42 101.02 81.42C85.8801 81.42 73.5901 81.3 73.5901 81.16C73.5901 81.02 85.8701 80.9 101.02 80.9C116.17 80.9 128.44 81 128.44 81.16Z" fill="white"/>
<path d="M81.64 143.69C81.4902 143.732 81.3357 143.756 81.18 143.76L79.84 143.88C79.26 143.93 78.55 143.97 77.72 143.99C76.89 144.01 75.95 144.05 74.91 143.99C72.82 143.99 70.34 143.84 67.59 143.55C64.614 143.204 61.6595 142.693 58.74 142.02C55.8274 141.321 52.9562 140.46 50.14 139.44C47.8455 138.6 45.5959 137.642 43.4 136.57C42.4 136.13 41.63 135.67 40.9 135.28C40.17 134.89 39.55 134.54 39.05 134.28L37.9 133.58C37.7637 133.504 37.6362 133.414 37.52 133.31C37.52 133.31 37.68 133.31 37.95 133.49L39.15 134.1C39.66 134.38 40.29 134.71 41.03 135.1C41.77 135.49 42.61 135.89 43.56 136.31C45.44 137.19 47.73 138.13 50.31 139.06C55.9174 141.07 61.7345 142.439 67.65 143.14C70.37 143.46 72.84 143.64 74.91 143.69C75.91 143.75 76.91 143.69 77.72 143.69C78.53 143.69 79.25 143.69 79.83 143.69H81.17C81.3256 143.664 81.4844 143.664 81.64 143.69V143.69Z" fill="white"/>
</svg>
